<svg id="Group_33" data-name="Group 33" xmlns="http://www.w3.org/2000/svg" xmlns:xlink="http://www.w3.org/1999/xlink" width="325.805" height="66.264" viewBox="0 0 325.805 66.264">
  <defs>
    <clipPath id="clip-path">
      <rect id="Rectangle_333" data-name="Rectangle 333" width="325.805" height="66.264" fill="none"/>
    </clipPath>
  </defs>
  <g id="Group_32" data-name="Group 32" clip-path="url(#clip-path)">
    <path id="Path_751" data-name="Path 751" d="M26.812,7.07a11.515,11.515,0,0,0-7.624-2.69c-7.47,0-12.434,4.3-12.434,9.72,0,5.8,4.963,10.1,12.434,10.1a11.465,11.465,0,0,0,8.136-3.3l5.322,2.843c-3.275,3.382-8.187,4.841-13.509,4.841C7.982,28.583,0,22.9,0,14.407,0,5.686,7.982,0,19.137,0c4.912,0,9.108,1.191,12.69,4.3Z" fill="#910035"/>
    <path id="Path_752" data-name="Path 752" d="M59.5,1.1h24V5.476H65.944v6.686h16.63v4.38H65.944v7.376H84.416V28.3H59.5Z" transform="translate(-21.989 -0.405)" fill="#910035"/>
    <path id="Path_753" data-name="Path 753" d="M109.9,1.1h8.545L136,21.3l.1.077H136l.1-.077V1.1h6.447V28.3h-8.187L116.453,7.436h-.1V28.3H109.9Z" transform="translate(-40.618 -0.405)" fill="#910035"/>
    <path id="Path_754" data-name="Path 754" d="M180.583,5.476h-11.1V1.1h28.655V5.476h-11.1V28.3h-6.449Z" transform="translate(-62.636 -0.405)" fill="#910035"/>
    <path id="Path_755" data-name="Path 755" d="M222.726,1.1h24V5.476h-17.55v6.686H245.8v4.38h-16.63v7.376h18.471V28.3H222.726Z" transform="translate(-82.315 -0.405)" fill="#910035"/>
    <path id="Path_756" data-name="Path 756" d="M273.132,1.1h8.545L299.228,21.3l.1.077h-.1l.1-.077V1.1h6.446V28.3H297.59L279.681,7.436h-.1V28.3h-6.448Z" transform="translate(-100.944 -0.405)" fill="#910035"/>
    <path id="Path_757" data-name="Path 757" d="M333.07,1.1h8.545L359.166,21.3l.1.077h-.1l.1-.077V1.1h6.447V28.3h-8.187L339.62,7.436h-.1V28.3H333.07Z" transform="translate(-123.096 -0.405)" fill="#910035"/>
    <rect id="Rectangle_331" data-name="Rectangle 331" width="6.448" height="27.2" transform="translate(251.064 0.692)" fill="#910035"/>
    <path id="Path_758" data-name="Path 758" d="M431.217,1.1h5.577L452.4,28.3h-7.368l-3.378-6.223H425.946L422.671,28.3h-7.214ZM439.4,17.924,433.826,6.859l-5.678,11.065Z" transform="translate(-153.544 -0.405)" fill="#910035"/>
    <path id="Path_759" data-name="Path 759" d="M481.283,1.1h6.447v22.82h15.4V28.3H481.283Z" transform="translate(-177.872 -0.405)" fill="#910035"/>
    <path id="Path_760" data-name="Path 760" d="M139.671,67.14V69.9H128.2V54.847h3.75V67.14Z" transform="translate(-47.379 -20.27)" fill="#00395c"/>
    <path id="Path_761" data-name="Path 761" d="M166.005,67.14V69.9h-11.1V54.847h10.947v2.758h-7.2v3.157h6.863V63.52h-6.863v3.62Z" transform="translate(-57.251 -20.27)" fill="#00395c"/>
    <path id="Path_762" data-name="Path 762" d="M190.028,54.848,196.713,69.9h-4.032l-1.24-2.974H184.7L183.578,69.9H179.6l6.08-15.051Zm.317,9.448-2.44-5.85-2.211,5.85Z" transform="translate(-66.378 -20.271)" fill="#00395c"/>
    <path id="Path_763" data-name="Path 763" d="M224.451,55.7v2.942a12.56,12.56,0,0,0-4.773-1.347,3.257,3.257,0,0,0-1.611.34,1.014,1.014,0,0,0-.6.9,1.107,1.107,0,0,0,.431.818,7.733,7.733,0,0,0,2.1,1,22.834,22.834,0,0,1,2.672,1.142,5.206,5.206,0,0,1,1.729,1.487,3.9,3.9,0,0,1,.728,2.424,4,4,0,0,1-1.589,3.329,6.619,6.619,0,0,1-4.185,1.239,11.079,11.079,0,0,1-5.43-1.455V65.281a14.686,14.686,0,0,0,2.672,1.476,6.6,6.6,0,0,0,2.467.464q2.209,0,2.208-1.389a1.228,1.228,0,0,0-.442-.894,7.037,7.037,0,0,0-2.128-1.023,21.378,21.378,0,0,1-2.672-1.12,5.029,5.029,0,0,1-1.7-1.476,3.991,3.991,0,0,1-.716-2.457,3.749,3.749,0,0,1,1.562-3.131,6.725,6.725,0,0,1,4.18-1.191,12.826,12.826,0,0,1,5.1,1.164" transform="translate(-78.947 -20.156)" fill="#00395c"/>
    <rect id="Rectangle_332" data-name="Rectangle 332" width="3.749" height="15.051" transform="translate(151.969 34.577)" fill="#00395c"/>
    <path id="Path_764" data-name="Path 764" d="M272.877,54.847V69.9h-3.166L261.4,60.256V69.9h-3.749V54.847h3.438l8.036,9.2v-9.2Z" transform="translate(-95.223 -20.27)" fill="#00395c"/>
    <path id="Path_765" data-name="Path 765" d="M306.26,55.779v3.286a12.881,12.881,0,0,0-5.624-1.389,5.768,5.768,0,0,0-4.083,1.335,4.451,4.451,0,0,0-1.433,3.4,4.025,4.025,0,0,0,1.433,3.211,5.6,5.6,0,0,0,3.771,1.227,6.242,6.242,0,0,0,2.488-.538V64.559h-2.176V61.8h5.937v6.152a6.545,6.545,0,0,1-2.721,1.459,12.128,12.128,0,0,1-3.614.567,9.565,9.565,0,0,1-6.459-2.171,7.368,7.368,0,0,1,0-11.109,9.721,9.721,0,0,1,6.546-2.16,13.717,13.717,0,0,1,5.936,1.239" transform="translate(-107.64 -20.157)" fill="#00395c"/>
    <path id="Path_766" data-name="Path 766" d="M351.314,61.974h3.221a12.434,12.434,0,0,1-3.027,4.5l3.027,3.308h-4.568l-1.1-1.2a8.652,8.652,0,0,1-4.729,1.39,5.12,5.12,0,0,1-3.4-1.137,3.544,3.544,0,0,1-1.358-2.828q0-2.543,3.372-4.256a5.913,5.913,0,0,1-1.368-3.34,3.487,3.487,0,0,1,1.3-2.774,4.942,4.942,0,0,1,3.308-1.1,4.755,4.755,0,0,1,3.134,1.007,3.19,3.19,0,0,1,1.218,2.57q0,2.2-2.8,3.857l2.046,2.36a10.148,10.148,0,0,0,1.724-2.36m-4.19,4.676L344.451,63.7q-1.541.991-1.541,2.026a1.646,1.646,0,0,0,.56,1.244,1.89,1.89,0,0,0,1.336.523,4.156,4.156,0,0,0,2.317-.84m-1.217-6.464q1.5-.873,1.5-1.9a1.173,1.173,0,0,0-.388-.9,1.425,1.425,0,0,0-1-.356,1.5,1.5,0,0,0-1,.328,1.03,1.03,0,0,0-.393.824,3.054,3.054,0,0,0,1.282,2" transform="translate(-125.426 -20.157)" fill="#00395c"/>
    <path id="Path_767" data-name="Path 767" d="M396.718,55.7v2.942a12.563,12.563,0,0,0-4.773-1.347,3.258,3.258,0,0,0-1.611.34,1.014,1.014,0,0,0-.6.9,1.1,1.1,0,0,0,.431.818,7.726,7.726,0,0,0,2.1,1A22.9,22.9,0,0,1,394.94,61.5a5.2,5.2,0,0,1,1.729,1.487,3.9,3.9,0,0,1,.728,2.424,4,4,0,0,1-1.589,3.329,6.617,6.617,0,0,1-4.185,1.239,11.075,11.075,0,0,1-5.43-1.455V65.281a14.683,14.683,0,0,0,2.672,1.476,6.607,6.607,0,0,0,2.468.464q2.208,0,2.208-1.389a1.228,1.228,0,0,0-.442-.894,7.053,7.053,0,0,0-2.128-1.023,21.375,21.375,0,0,1-2.672-1.12,5.037,5.037,0,0,1-1.7-1.476,4,4,0,0,1-.716-2.457,3.751,3.751,0,0,1,1.562-3.131,6.726,6.726,0,0,1,4.18-1.191,12.829,12.829,0,0,1,5.1,1.164" transform="translate(-142.613 -20.156)" fill="#00395c"/>
    <path id="Path_768" data-name="Path 768" d="M420.981,54.848,427.666,69.9h-4.031l-1.24-2.974h-6.74L414.531,69.9h-3.974l6.08-15.051ZM421.3,64.3l-2.44-5.85-2.211,5.85Z" transform="translate(-151.733 -20.271)" fill="#00395c"/>
    <path id="Path_769" data-name="Path 769" d="M457.031,67.14V69.9H445.557V54.847h3.749V67.14Z" transform="translate(-164.668 -20.27)" fill="#00395c"/>
    <path id="Path_770" data-name="Path 770" d="M483.366,67.14V69.9h-11.1V54.847h10.947v2.758h-7.2v3.157h6.863V63.52h-6.863v3.62Z" transform="translate(-174.54 -20.27)" fill="#00395c"/>
    <path id="Path_771" data-name="Path 771" d="M509.374,55.7v2.942A12.566,12.566,0,0,0,504.6,57.3a3.257,3.257,0,0,0-1.612.34,1.013,1.013,0,0,0-.6.9,1.1,1.1,0,0,0,.43.818,7.747,7.747,0,0,0,2.1,1A22.916,22.916,0,0,1,507.6,61.5a5.2,5.2,0,0,1,1.729,1.487,3.9,3.9,0,0,1,.727,2.424,4,4,0,0,1-1.589,3.329,6.617,6.617,0,0,1-4.185,1.239,11.075,11.075,0,0,1-5.43-1.455V65.281a14.684,14.684,0,0,0,2.672,1.476,6.606,6.606,0,0,0,2.467.464q2.206,0,2.209-1.389a1.228,1.228,0,0,0-.444-.894,7.039,7.039,0,0,0-2.128-1.023,21.423,21.423,0,0,1-2.672-1.12,5.028,5.028,0,0,1-1.7-1.476,3.991,3.991,0,0,1-.717-2.457A3.752,3.752,0,0,1,500.1,55.73a6.728,6.728,0,0,1,4.181-1.191,12.826,12.826,0,0,1,5.1,1.164" transform="translate(-184.248 -20.156)" fill="#00395c"/>
    <path id="Path_772" data-name="Path 772" d="M86.647,83.66h18.807L17.4,48.611.023,83.66H12.845L17.974,48.9Z" transform="translate(-0.008 -17.965)" fill="#00395c"/>
    <path id="Path_773" data-name="Path 773" d="M40.083,62.623H37.694l6.042,8.112H48.39Z" transform="translate(-13.931 -23.144)" fill="#00395c"/>
    <path id="Path_774" data-name="Path 774" d="M57.786,81.846H52.013L62.938,96.512h9.87Z" transform="translate(-19.223 -30.249)" fill="#00395c"/>
    <path id="Path_775" data-name="Path 775" d="M33.723,55.046l-6.129-5.984,4.458,5.984Z" transform="translate(-10.198 -18.132)" fill="#00395c"/>
  </g>
</svg>
